<svg enable-background="new 0 0 579.997 579.997" height="579.997" viewBox="0 0 579.997 579.997" width="579.997" xmlns="http://www.w3.org/2000/svg">
<path d="m504.772 154.191l7.089-34.708-222.613-94.895-222.612 94.895 7.089 34.708zm-215.524-90.298l127.014 54.143h-254.027z" fill="rgba(0,0,0,1.0)" fill-opacity="1" stroke="rgba(35,35,35,0.9019607843137255)" stroke-opacity="1" stroke-width="0"/>
<path d="m107.285 347.365h363.944v30.932h-363.944z" fill="rgba(0,0,0,1.0)" fill-opacity="1" stroke="rgba(35,35,35,0.9019607843137255)" stroke-opacity="1" stroke-width="0"/>
<path d="m83.663 403.082h411.188v36.439h-411.188z" fill="rgba(0,0,0,1.0)" fill-opacity="1" stroke="rgba(35,35,35,0.9019607843137255)" stroke-opacity="1" stroke-width="0"/>
<path d="m53.033 466.779h472.43v39.971h-472.43z" fill="rgba(0,0,0,1.0)" fill-opacity="1" stroke="rgba(35,35,35,0.9019607843137255)" stroke-opacity="1" stroke-width="0"/>
<path d="m139.486 164.467c0 0-12.446 61.119-12.446 170.012h52.469c0-108.893-13.488-170.012-13.488-170.012z" fill="rgba(0,0,0,1.0)" fill-opacity="1" stroke="rgba(35,35,35,0.9019607843137255)" stroke-opacity="1" stroke-width="0"/>
<path d="m230.229 164.467c0 0-12.446 61.119-12.446 170.012h52.469c0-108.893-13.487-170.012-13.487-170.012z" fill="rgba(0,0,0,1.0)" fill-opacity="1" stroke="rgba(35,35,35,0.9019607843137255)" stroke-opacity="1" stroke-width="0"/>
<path d="m320.955 164.467c0 0-12.429 61.119-12.429 170.012h52.469c0-108.893-13.487-170.012-13.487-170.012z" fill="rgba(0,0,0,1.0)" fill-opacity="1" stroke="rgba(35,35,35,0.9019607843137255)" stroke-opacity="1" stroke-width="0"/>
<path d="m411.698 164.467c0 0-12.429 61.119-12.429 170.012h52.469c0-108.893-13.487-170.012-13.487-170.012z" fill="rgba(0,0,0,1.0)" fill-opacity="1" stroke="rgba(35,35,35,0.9019607843137255)" stroke-opacity="1" stroke-width="0"/>
</svg>
